<mxfile host="www.draw.io" modified="2020-01-09T01:18:23.307Z" agent="Mozilla/5.0 (Macintosh; Intel Mac OS X 10_15_2) AppleWebKit/537.36 (KHTML, like Gecko) Chrome/79.0.3945.88 Safari/537.36" etag="Uc1HDHFj1UMc4HLc1mNL" version="12.4.9" type="github">
  <diagram id="HDOymsAuf7TeRGKFn6x9" name="第 1 页">
    <mxGraphModel dx="853" dy="568" grid="1" gridSize="10" guides="1" tooltips="1" connect="1" arrows="1" fold="1" page="1" pageScale="1" pageWidth="827" pageHeight="1169" math="0" shadow="0">
      <root>
        <mxCell id="0"/>
        <mxCell id="1" parent="0"/>
        <mxCell id="tVM8W8fDKYf84uRTzSTe-3" value="" style="edgeStyle=orthogonalEdgeStyle;rounded=0;orthogonalLoop=1;jettySize=auto;html=1;exitX=0.5;exitY=1;exitDx=0;exitDy=0;strokeColor=#8599A3;" parent="1" source="MyKHsASreW0p2AuE-nyL-2" edge="1">
          <mxGeometry relative="1" as="geometry">
            <mxPoint x="345" y="150" as="targetPoint"/>
          </mxGeometry>
        </mxCell>
        <mxCell id="CQuu-iDLuuo4Fo0iYom9-3" value="&lt;font color=&quot;#ffffff&quot; style=&quot;font-size: 14px&quot;&gt;监听的值为&lt;br&gt;Object还是Array&lt;/font&gt;" style="rhombus;whiteSpace=wrap;html=1;fillColor=#fcb737;strokeColor=none;" parent="1" vertex="1">
          <mxGeometry x="257.5" y="300" width="175" height="100" as="geometry"/>
        </mxCell>
        <mxCell id="MyKHsASreW0p2AuE-nyL-2" value="&lt;font color=&quot;#ffffff&quot; style=&quot;font-size: 16px&quot;&gt;store&lt;/font&gt;" style="rounded=1;whiteSpace=wrap;html=1;fillColor=#34495D;" vertex="1" parent="1">
          <mxGeometry x="300" y="70" width="90" height="40" as="geometry"/>
        </mxCell>
        <mxCell id="MyKHsASreW0p2AuE-nyL-3" value="&lt;font color=&quot;#ffffff&quot; style=&quot;font-size: 16px&quot; face=&quot;Lucida Console&quot;&gt;初始化数据&lt;br&gt;create(store, option)&lt;br&gt;&lt;/font&gt;" style="rounded=1;whiteSpace=wrap;html=1;fillColor=#39b882;strokeColor=none;" vertex="1" parent="1">
          <mxGeometry x="250" y="150" width="176.25" height="70" as="geometry"/>
        </mxCell>
        <mxCell id="MyKHsASreW0p2AuE-nyL-6" value="" style="endArrow=classic;html=1;shadow=0;dashed=1;strokeColor=#8599A3;" edge="1" parent="1">
          <mxGeometry width="50" height="50" relative="1" as="geometry">
            <mxPoint x="350" y="269.5" as="sourcePoint"/>
            <mxPoint x="470" y="270" as="targetPoint"/>
          </mxGeometry>
        </mxCell>
        <mxCell id="MyKHsASreW0p2AuE-nyL-7" value="&lt;font style=&quot;font-size: 14px&quot;&gt;observe(store)&lt;br&gt;属性监听&lt;br&gt;&lt;/font&gt;" style="ellipse;whiteSpace=wrap;html=1;fillColor=none;strokeColor=#8599A3;dashed=1;strokeWidth=4;" vertex="1" parent="1">
          <mxGeometry x="470" y="220" width="116.87" height="90" as="geometry"/>
        </mxCell>
        <mxCell id="MyKHsASreW0p2AuE-nyL-12" value="" style="endArrow=none;html=1;shadow=0;strokeColor=#8599A3;" edge="1" parent="1">
          <mxGeometry width="50" height="50" relative="1" as="geometry">
            <mxPoint x="345" y="430" as="sourcePoint"/>
            <mxPoint x="344.51" y="400" as="targetPoint"/>
          </mxGeometry>
        </mxCell>
        <mxCell id="MyKHsASreW0p2AuE-nyL-13" value="" style="endArrow=none;html=1;shadow=0;strokeColor=#8599A3;" edge="1" parent="1">
          <mxGeometry width="50" height="50" relative="1" as="geometry">
            <mxPoint x="246.88" y="430" as="sourcePoint"/>
            <mxPoint x="440" y="430" as="targetPoint"/>
          </mxGeometry>
        </mxCell>
        <mxCell id="MyKHsASreW0p2AuE-nyL-17" value="" style="edgeStyle=orthogonalEdgeStyle;rounded=0;orthogonalLoop=1;jettySize=auto;html=1;exitX=0.5;exitY=1;exitDx=0;exitDy=0;strokeColor=#8599A3;entryX=0.5;entryY=0;entryDx=0;entryDy=0;" edge="1" parent="1" target="CQuu-iDLuuo4Fo0iYom9-3">
          <mxGeometry relative="1" as="geometry">
            <mxPoint x="345.13" y="220" as="sourcePoint"/>
            <mxPoint x="345.13" y="260" as="targetPoint"/>
            <Array as="points"/>
          </mxGeometry>
        </mxCell>
        <mxCell id="MyKHsASreW0p2AuE-nyL-18" value="" style="endArrow=classic;html=1;shadow=0;strokeColor=#8599A3;" edge="1" parent="1">
          <mxGeometry width="50" height="50" relative="1" as="geometry">
            <mxPoint x="247.5" y="430" as="sourcePoint"/>
            <mxPoint x="248" y="470" as="targetPoint"/>
          </mxGeometry>
        </mxCell>
        <mxCell id="MyKHsASreW0p2AuE-nyL-20" value="&lt;font color=&quot;#ffffff&quot; style=&quot;font-size: 14px&quot;&gt;属性监听&lt;/font&gt;" style="rounded=1;whiteSpace=wrap;html=1;fillColor=#39b882;strokeColor=none;" vertex="1" parent="1">
          <mxGeometry x="190" y="470" width="120" height="40" as="geometry"/>
        </mxCell>
        <mxCell id="MyKHsASreW0p2AuE-nyL-21" value="&lt;span style=&quot;font-weight: normal&quot;&gt;&lt;font style=&quot;font-size: 14px&quot;&gt;object&lt;/font&gt;&lt;/span&gt;" style="text;strokeColor=none;fillColor=none;html=1;fontSize=24;fontStyle=1;verticalAlign=middle;align=center;rounded=1;" vertex="1" parent="1">
          <mxGeometry x="190" y="430" width="50" height="30" as="geometry"/>
        </mxCell>
        <mxCell id="MyKHsASreW0p2AuE-nyL-22" value="&lt;span style=&quot;font-size: 14px ; font-weight: 400&quot;&gt;array&lt;/span&gt;" style="text;strokeColor=none;fillColor=none;html=1;fontSize=24;fontStyle=1;verticalAlign=middle;align=center;rounded=1;" vertex="1" parent="1">
          <mxGeometry x="460" y="430" width="50" height="30" as="geometry"/>
        </mxCell>
        <mxCell id="MyKHsASreW0p2AuE-nyL-23" value="&lt;font color=&quot;#ffffff&quot; style=&quot;font-size: 14px&quot;&gt;拦截数组方法&lt;/font&gt;" style="rounded=1;whiteSpace=wrap;html=1;fillColor=#39b882;strokeColor=none;" vertex="1" parent="1">
          <mxGeometry x="390" y="470" width="110" height="40" as="geometry"/>
        </mxCell>
        <mxCell id="MyKHsASreW0p2AuE-nyL-30" value="" style="endArrow=classic;html=1;shadow=0;strokeColor=#8599A3;" edge="1" parent="1">
          <mxGeometry width="50" height="50" relative="1" as="geometry">
            <mxPoint x="440" y="430" as="sourcePoint"/>
            <mxPoint x="440.5" y="470" as="targetPoint"/>
          </mxGeometry>
        </mxCell>
        <mxCell id="MyKHsASreW0p2AuE-nyL-36" value="" style="edgeStyle=orthogonalEdgeStyle;rounded=0;comic=0;orthogonalLoop=1;jettySize=auto;html=1;shadow=0;strokeColor=#8599A3;" edge="1" parent="1" source="MyKHsASreW0p2AuE-nyL-34">
          <mxGeometry relative="1" as="geometry">
            <mxPoint x="344" y="620" as="targetPoint"/>
          </mxGeometry>
        </mxCell>
        <mxCell id="MyKHsASreW0p2AuE-nyL-34" value="" style="shape=partialRectangle;whiteSpace=wrap;html=1;bottom=1;right=1;left=1;top=0;fillColor=none;routingCenterX=-0.5;rounded=1;strokeColor=#8599A3;" vertex="1" parent="1">
          <mxGeometry x="247.5" y="510" width="192.5" height="30" as="geometry"/>
        </mxCell>
        <mxCell id="MyKHsASreW0p2AuE-nyL-39" value="" style="endArrow=classic;html=1;shadow=0;dashed=1;strokeColor=#8599A3;" edge="1" parent="1">
          <mxGeometry width="50" height="50" relative="1" as="geometry">
            <mxPoint x="350" y="564.5" as="sourcePoint"/>
            <mxPoint x="530" y="565" as="targetPoint"/>
          </mxGeometry>
        </mxCell>
        <mxCell id="MyKHsASreW0p2AuE-nyL-40" value="&lt;font style=&quot;font-size: 14px&quot;&gt;1.生成更新路径&lt;br&gt;2.组装patch对象&lt;br&gt;&lt;/font&gt;" style="ellipse;whiteSpace=wrap;html=1;fillColor=none;strokeColor=#8599A3;dashed=1;strokeWidth=4;" vertex="1" parent="1">
          <mxGeometry x="530" y="520" width="170" height="100" as="geometry"/>
        </mxCell>
        <mxCell id="MyKHsASreW0p2AuE-nyL-41" value="&lt;font color=&quot;#ffffff&quot; style=&quot;font-size: 14px&quot;&gt;setData(patch&lt;/font&gt;&lt;span style=&quot;font-size: 14px ; color: rgb(255 , 255 , 255)&quot;&gt;)&lt;/span&gt;&lt;br&gt;&lt;font color=&quot;#ffffff&quot; style=&quot;font-size: 14px&quot;&gt;局部更新视图&lt;br&gt;&lt;/font&gt;" style="rounded=1;whiteSpace=wrap;html=1;fillColor=#39b882;strokeColor=none;" vertex="1" parent="1">
          <mxGeometry x="250" y="620" width="187.5" height="80" as="geometry"/>
        </mxCell>
      </root>
    </mxGraphModel>
  </diagram>
</mxfile>
